<svg xmlns="http://www.w3.org/2000/svg" width="32" height="32" viewBox="0 0 32 32">
  <g fill="none" transform="translate(4 5)">
    <path fill="#7ACCEE" d="M4 3L4 0 1 0C.448 0 0 .448 0 1L0 3 4 3zM24 3L24 1C24 .448 23.552 0 23 0L6 0 6 3 24 3z"/>
    <path fill="#AA759F" d="M0,5 L0,21 C0,21.552 0.448,22 1,22 L23,22 C23.552,22 24,21.552 24,21 L24,5 L0,5 Z M8.707,13.707 L5,17.414 L3.586,16 L6.586,13 L3.586,10 L5,8.586 L8.707,12.293 C9.098,12.684 9.098,13.316 8.707,13.707 Z M17,17 L11,17 L11,15 L17,15 L17,17 Z"/>
  </g>
</svg>
