<svg xmlns="http://www.w3.org/2000/svg" width="32" height="32" viewBox="0 0 32 32">
  <g fill="none" transform="translate(5 3)">
    <polygon fill="#3965BD" points="21.924 .968 19.932 23.44 10.979 25.939 2.05 23.443 .06 .968"/>
    <polygon fill="#7ACCEE" points="19.932 23.45 21.926 .968 10.992 .968 10.992 25.939"/>
    <path fill="#000" d="M10.9919836,11.1415767 L14.5902795,11.1415767 L14.8393315,8.31894786 L10.9919836,8.31894786 L4.37751781,8.31894786 L4.12870685,5.56248249 L10.9825205,5.56248249 L10.9919836,5.56248249 L17.838926,5.56248249 L17.3448,11.1415767 L17.2780164,11.8817572 L16.6348329,19.1385494 L16.5936658,19.6042428 L10.9919836,21.1677323 L10.9793863,21.1717089 L5.37270137,19.6042428 L4.98923836,15.2762444 L6.25559452,15.2762444 L7.7368274,15.2762444 L7.93169315,17.4746304 L10.979989,18.3035549 L10.9825205,18.3028759 L14.0352164,17.47287 L14.3529205,13.8979813 L10.9919836,13.8979813 L4.86694247,13.8979813 L4.6216274,11.1415767 L10.9919836,11.1415767 Z"/>
  </g>
</svg>
