<svg xmlns="http://www.w3.org/2000/svg" width="32" height="32" viewBox="0 0 32 32">
  <g fill="#FF6E9F" stroke="#FF6E9F" stroke-width=".5" transform="translate(6 4)">
    <polygon points="2.008 18.257 1.148 17.751 10.727 .844 11.587 1.35"/>
    <polygon points=".951 16.4 20.108 16.4 20.108 17.412 .951 17.412"/>
    <path d="M10.912385,22.6069987 L1.33023551,16.969132 L1.82666636,16.092932 L11.4088159,21.7307987 L10.912385,22.6069987 Z M19.2364972,7.91299867 L9.65434766,2.275132 L10.1507785,1.398932 L19.732928,7.03679867 L19.2364972,7.91299867 Z"/>
    <polygon points="1.829 7.909 1.333 7.033 10.915 1.395 11.411 2.271"/>
    <path d="M19.0598617,18.2569987 L9.48098318,1.350332 L10.3408056,0.844445333 L19.9196841,17.751112 L19.0598617,18.2569987 Z M1.71032897,6.36166533 L2.70321682,6.36166533 L2.70321682,17.6376653 L1.71032897,17.6376653 L1.71032897,6.36166533 Z M18.3618243,6.36166533 L19.3547121,6.36166533 L19.3547121,17.6376653 L18.3618243,17.6376653 L18.3618243,6.36166533 Z"/>
    <polygon points="10.744 22.179 10.31 21.414 18.644 16.51 19.078 17.275"/>
    <path d="M20.6705159,17.9669987 C20.0963327,18.9848653 18.8163664,19.3322653 17.8175252,18.747132 C16.8186841,18.162012 16.4777776,16.8576653 17.0519738,15.8397987 C17.626157,14.821932 18.9061234,14.474532 19.9049645,15.0596653 C20.9097589,15.6508787 21.2507308,16.949132 20.6705159,17.9669987 M4.00724486,8.160332 C3.43306168,9.17819867 2.15309533,9.52559867 1.15425421,8.94046533 C0.155413084,8.35534533 -0.185493458,7.05099867 0.388702804,6.033132 C0.962885981,5.01526533 2.24285234,4.66786533 3.24169346,5.25299867 C4.24053458,5.844212 4.58144112,7.14246533 4.00724486,8.160332 M0.394656075,17.9669987 C-0.179527103,16.949132 0.161392523,15.6508653 1.16020748,15.0596653 C2.1590486,14.4745453 3.4330486,14.8219587 4.01319813,15.8397987 C4.58738131,16.8576653 4.24646168,18.155932 3.24764673,18.747132 C2.24285234,19.332252 0.968852336,18.9848387 0.394656075,17.9669987 M17.0579271,8.160332 C16.4837439,7.14246533 16.8246636,5.84419867 17.8234785,5.25299867 C18.8223196,4.66787867 20.0963196,5.015292 20.6764692,6.033132 C21.2506523,7.05099867 20.9097327,8.34926533 19.9109178,8.94046533 C18.9120766,9.52558533 17.6321234,9.178172 17.0579271,8.160332 M10.5325533,23.934332 C9.37820748,23.934332 8.44517944,22.983532 8.44517944,21.8071987 C8.44517944,20.6308653 9.37820748,19.6800653 10.5325533,19.6800653 C11.6868991,19.6800653 12.6199271,20.6308653 12.6199271,21.8071987 C12.6199271,22.9774653 11.6868991,23.934332 10.5325533,23.934332 M10.5325533,4.320332 C9.37820748,4.320332 8.44517944,3.369532 8.44517944,2.19319867 C8.44517944,1.01686533 9.37820748,0.0660653333 10.5325533,0.0660653333 C11.6868991,0.0660653333 12.6199271,1.01686533 12.6199271,2.19319867 C12.6199271,3.369532 11.6868991,4.320332 10.5325533,4.320332"/>
  </g>
</svg>
