<svg xmlns="http://www.w3.org/2000/svg" width="32" height="32" viewBox="0 0 32 32">
  <g fill="none" transform="translate(5 3)">
    <polyline fill="#AB7558" points="2.031 23.422 .036 .134 21.964 .134 19.969 23.41 10.982 26"/>
    <polyline fill="#EE9D5C" points="11 26 11 .134 21.964 .134 19.872 23.521"/>
    <path fill="#000" d="M4.10989011,4.89386161 L11,4.89386161 L11,7.74825149 L7.11978022,7.74825149 L7.37362637,10.6718006 L11,10.6718006 L11,13.5199033 L4.85934066,13.5199033 M4.98021978,14.9533854 L7.73626374,14.9533854 L7.92967033,17.2356399 L11,18.0906994 L11,21.0708333 L5.36703297,19.4361607"/>
    <path fill="#000" d="M17.8659341,4.89386161 L10.9879121,4.89386161 L10.9879121,7.74825149 L17.6120879,7.74825149 M17.3642857,10.6718006 L10.9879121,10.6718006 L10.9879121,13.5261905 L14.3725275,13.5261905 L14.0521978,17.2356399 L10.9879121,18.0906994 L10.9879121,21.0582589 L16.6087912,19.4361607"/>
  </g>
</svg>
