<svg xmlns="http://www.w3.org/2000/svg" width="32" height="32" viewBox="0 0 32 32">
  <path fill="#F4BF75" d="M0,0 L24,0 L24,24 L0,24 L0,0 L0,0 Z M6.30666667,20.0533333 C6.84,21.1866667 7.89333333,22.12 9.69333333,22.12 C11.6933333,22.12 13.0666667,21.0533333 13.0666667,18.72 L13.0666667,11.0133333 L10.8,11.0133333 L10.8,18.6666667 C10.8,19.8133333 10.3333333,20.1066667 9.6,20.1066667 C8.82666667,20.1066667 8.50666667,19.5733333 8.14666667,18.9466667 L6.30666667,20.0533333 L6.30666667,20.0533333 Z M14.28,19.8133333 C14.9466667,21.12 16.2933333,22.12 18.4,22.12 C20.5333333,22.12 22.1333333,21.0133333 22.1333333,18.9733333 C22.1333333,17.0933333 21.0533333,16.2533333 19.1333333,15.4266667 L18.5733333,15.1866667 C17.6,14.7733333 17.1866667,14.4933333 17.1866667,13.8266667 C17.1866667,13.28 17.6,12.8533333 18.2666667,12.8533333 C18.9066667,12.8533333 19.3333333,13.1333333 19.72,13.8266667 L21.4666667,12.6666667 C20.7333333,11.3866667 19.6933333,10.8933333 18.2666667,10.8933333 C16.2533333,10.8933333 14.96,12.1733333 14.96,13.8666667 C14.96,15.7066667 16.04,16.5733333 17.6666667,17.2666667 L18.2266667,17.5066667 C19.2666667,17.96 19.88,18.24 19.88,19.0133333 C19.88,19.6533333 19.28,20.12 18.3466667,20.12 C17.24,20.12 16.6,19.5466667 16.12,18.7466667 L14.28,19.8133333 Z" transform="translate(4 4)"/>
</svg>
