<svg xmlns="http://www.w3.org/2000/svg" width="32" height="32" viewBox="0 0 32 32">
  <g fill="none" fill-rule="evenodd" transform="translate(4 7)">
    <path fill="#AA759F" fill-rule="nonzero" d="M5,0 L7,0 L7,2 L5,2 L5,7 C5,8.1045695 4.1045695,9 3,9 C4.1045695,9 5,9.8954305 5,11 L5,16 L7,16 L7,18 L5,18 C3.93,17.73 3,17.1 3,16 L3,12 C3,10.8954305 2.1045695,10 1,10 L0,10 L0,8 L1,8 C2.1045695,8 3,7.1045695 3,6 L3,2 C3,0.8954305 3.8954305,0 5,0 L5,0 Z M19,0 C20.1045695,0 21,0.8954305 21,2 L21,6 C21,7.1045695 21.8954305,8 23,8 L24,8 L24,10 L23,10 C21.8954305,10 21,10.8954305 21,12 L21,16 C21,17.1045695 20.1045695,18 19,18 L17,18 L17,16 L19,16 L19,11 C19,9.8954305 19.8954305,9 21,9 C19.8954305,9 19,8.1045695 19,7 L19,2 L17,2 L17,0 L19,0 L19,0 Z"/>
    <path fill="#AEE33E" d="M12 12C12.5522847 12 13 12.4477153 13 13 13 13.5522847 12.5522847 14 12 14 11.4477153 14 11 13.5522847 11 13 11 12.4477153 11.4477153 12 12 12L12 12zM8 12C8.55228475 12 9 12.4477153 9 13 9 13.5522847 8.55228475 14 8 14 7.44771525 14 7 13.5522847 7 13 7 12.4477153 7.44771525 12 8 12L8 12zM16 12C16.5522847 12 17 12.4477153 17 13 17 13.5522847 16.5522847 14 16 14 15.4477153 14 15 13.5522847 15 13 15 12.4477153 15.4477153 12 16 12z"/>
  </g>
</svg>
