<svg xmlns="http://www.w3.org/2000/svg" width="32" height="32" viewBox="0 0 32 32">
  <g fill="#6A9FB5" fill-rule="evenodd" stroke="#6A9FB5" stroke-width=".962" transform="translate(5 4)">
    <path d="M22.1567825,17.988985 C20.9586677,18.0948288 19.4010959,17.7782257 18.5811433,18.8649676 C18.5865888,20.0775049 20.1306677,20.8137948 21.1349585,21.3633572 C22.0836189,21.6756421 23.0189204,22.6159242 23.8205254,22.7880614 C22.9571974,21.4254701 21.5302732,20.5035621 20.1643306,19.6659896 C19.9539913,18.0218248 22.5241149,19.4265612 22.978799,18.1885279 C22.4589872,16.7988225 20.8966269,16.2581103 19.8003714,15.396087 C18.6386523,14.7878802 17.1048272,14.3853635 16.6709237,13.0099345 C15.3978815,10.2528936 14.36823,7.21914904 11.9636493,5.17079042 C10.4437111,3.76171307 8.69605475,2.36676307 6.60932907,1.94003095 C4.79974314,2.00578747 3.4954739,0.488845952 1.80586165,0.168032833 C-0.0371386047,0.0300718035 -0.324906694,2.28359167 0.931373252,3.22766959 C2.08750926,4.37772013 2.42914877,5.95932128 2.99801514,7.41248266 C3.5016899,8.49716072 4.49429878,9.25622356 3.78966855,10.4925536 C3.29033564,12.4561766 3.25259572,14.7985945 4.70986281,16.3944161 C5.75214457,17.4223201 6.86686844,16.2451639 6.72526082,15.1000917 C7.27672157,14.3411308 7.6216403,16.2833844 8.25810143,16.5793005 C8.929923,17.2731181 9.64650209,18.0090355 10.4946725,18.4628515 C9.23679577,17.2747832 8.42441001,15.720691 7.57660736,14.2389351 C7.81235655,12.8510052 5.73009536,12.3765497 5.90435837,14.0080409 C5.93307263,14.6568262 5.46099445,16.5086127 4.76420973,15.2085206 C3.90655169,13.6001456 4.17919119,11.7149963 4.66816604,10.0452549 C5.13554932,8.73054658 4.03422408,7.84043459 3.4876595,6.80895829 C3.04215743,5.63032685 2.95038358,4.2428308 1.9141705,3.36465241 C0.91839473,2.74192385 0.652362311,0.538000483 2.33874242,1.22714644 C3.60886446,2.10388166 4.96101635,2.73777623 6.537963,2.80733439 C8.86629486,3.50336087 10.8162288,5.11369097 12.3334663,6.93854661 C14.1586527,9.06522185 14.8641512,11.8099946 16.2048614,14.2061208 C16.5793976,15.2114301 17.7709447,15.3249676 18.6514269,15.6975485 C19.7965232,16.0154522 20.6299256,16.8658983 21.6287792,17.4416547 C21.8316189,17.5962746 22.0169055,17.7766043 22.1567825,17.988985 L22.1567825,17.988985 Z"/>
    <path d="M4.90385979,4.24457438 C5.29935666,4.66286477 5.54111985,5.13214982 5.77824566,5.60387535 C6.41437584,4.91835594 6.08040801,3.77689273 4.90385979,4.24457438 L4.90385979,4.24457438 Z"/>
  </g>
</svg>
