<svg xmlns="http://www.w3.org/2000/svg" width="32" height="32" viewBox="0 0 32 32">
  <path fill="#3965BD" fill-rule="evenodd" d="M29,3 L29,29 L3,29 L3,3 L29,3 Z M18.2600872,22.9037489 L18.2627954,22.9012736 L17.7333333,24.8159181 C18.0583229,24.9710369 18.5096972,25.1162545 19.0874564,25.2515709 C19.6652155,25.3868873 20.2786333,25.4545455 20.9277096,25.4545455 C22.4650906,25.4545455 23.6039081,25.1385322 24.344162,24.5065056 C25.0844159,23.874479 25.4545429,23.1265259 25.4545429,22.2626462 C25.4554456,21.5283073 25.2193768,20.9127827 24.7463365,20.4160725 C24.2732962,19.9193623 23.5362019,19.503512 22.5350536,19.1685214 C21.8011189,18.9102651 21.2721082,18.6846002 20.9480214,18.4915269 C20.6239346,18.2984535 20.4618912,18.0406097 20.4618912,17.7179956 C20.4618912,17.4473629 20.5959494,17.2122094 20.8640658,17.0125352 C21.1321821,16.812861 21.5411273,16.7130239 22.0909013,16.7130239 C22.6406752,16.7130239 23.1132641,16.7711934 23.5086681,16.8875325 C23.904072,17.0038716 24.2146176,17.1136099 24.4403047,17.2167474 L25.0117446,15.3404701 C24.6741166,15.1985529 24.2687825,15.0760256 23.7957422,14.9728881 C23.3227018,14.8697506 22.7688655,14.8181818 22.1342332,14.8181818 C20.8080954,14.8190069 19.7640665,15.1156304 19.0021466,15.7080521 C18.2402267,16.3004739 17.8592668,17.0352254 17.8592668,17.9123067 C17.8592668,18.6598473 18.1449867,19.2819726 18.7164267,19.7786828 C19.2878666,20.275393 20.0389535,20.6784543 20.9696874,20.9878668 C21.6467489,21.1941418 22.1297195,21.4070176 22.418599,21.6264942 C22.7074786,21.8459708 22.8519184,22.1104153 22.8519184,22.4198278 C22.8519184,22.7548184 22.7002566,23.0254512 22.3969331,23.2317262 C22.0936095,23.4380011 21.6526168,23.5411386 21.0739549,23.5411386 C20.5241809,23.5411386 19.9987812,23.4767808 19.4977556,23.3480652 C18.9967301,23.2193497 18.584174,23.0712442 18.2600872,22.9037489 Z M12.2039797,25.4545455 L14.446019,25.4545455 L14.446019,16.6175121 L17.7333333,16.6175121 L17.7333333,14.8181818 L8.90909091,14.8181818 L8.90909091,16.6175121 L12.2039797,16.6175121 L12.2039797,25.4545455 Z"/>
</svg>
